<?xml version="1.0" encoding="utf-8"?>
<!-- Generator: Adobe Illustrator 16.0.0, SVG Export Plug-In . SVG Version: 6.00 Build 0)  -->
<!DOCTYPE svg PUBLIC "-//W3C//DTD SVG 1.1//EN" "http://www.w3.org/Graphics/SVG/1.1/DTD/svg11.dtd">
<svg version="1.1" id="Layer_1" xmlns="http://www.w3.org/2000/svg" xmlns:xlink="http://www.w3.org/1999/xlink" x="0px" y="0px"
     width="170.704px" height="38.934px" viewBox="0 0 170.704 38.934" xml:space="preserve" style="background: none;">
<g>
	<path fill="#F8A81B" d="M18.68,28.362h6.797c-0.688,2.688-2.074,4.793-4.16,6.316s-4.629,2.285-7.629,2.285
		c-3.688,0-6.609-1.238-8.766-3.715s-3.234-5.832-3.234-10.066c0-4.172,1.063-7.461,3.188-9.868s5.031-3.609,8.719-3.609
		c3.906,0,6.922,1.184,9.047,3.551s3.188,5.738,3.188,10.114c0,0.484-0.004,0.848-0.012,1.09s-0.027,0.473-0.059,0.691H8.742
		c0.094,2,0.582,3.508,1.465,4.523s2.152,1.523,3.809,1.523c1.172,0,2.133-0.23,2.883-0.691S18.242,29.331,18.68,28.362z
		 M8.742,20.675h10.031c-0.063-1.719-0.52-3.028-1.371-3.926s-2.074-1.348-3.668-1.348c-1.484,0-2.652,0.453-3.504,1.359
		S8.883,18.971,8.742,20.675z"/>
	<path fill="#F8A81B" d="M44.93,32.933c-0.859,1.328-1.984,2.34-3.375,3.035s-3.008,1.043-4.852,1.043
		c-2.469,0-4.371-0.703-5.707-2.109s-2.004-3.406-2.004-6c0-2.406,0.668-4.242,2.004-5.508s3.543-2.133,6.621-2.602
		c0.703-0.109,1.625-0.234,2.766-0.375c2.891-0.375,4.336-1.211,4.336-2.508c0-1.031-0.32-1.77-0.961-2.215
		s-1.711-0.668-3.211-0.668c-1.375,0-2.43,0.273-3.164,0.82s-1.102,1.328-1.102,2.344v0.375h-6.375v-0.469
		c0-2.609,0.922-4.66,2.766-6.152s4.391-2.238,7.641-2.238c3.563,0,6.293,0.617,8.191,1.852s2.847,3.016,2.847,5.344v14.485
		c0,1.063,0.109,1.855,0.328,2.379s0.586,0.918,1.102,1.184v1.148H45.68c-0.234-0.438-0.414-0.922-0.539-1.453
		S44.945,33.542,44.93,32.933z M44.813,23.558c-1.109,0.516-2.387,0.93-3.832,1.242s-2.191,0.477-2.238,0.492
		c-1.203,0.344-2.043,0.773-2.52,1.289s-0.715,1.227-0.715,2.133c0,0.938,0.305,1.684,0.914,2.238s1.43,0.832,2.461,0.832
		c1.844,0,3.293-0.52,4.348-1.559s1.582-2.457,1.582-4.254V23.558z"/>
	<path fill="#F8A81B" d="M68.625,36.284C68,36.3,67.253,36.327,66.386,36.366s-1.418,0.059-1.652,0.059
		c-2.609,0-4.395-0.488-5.355-1.465s-1.441-2.902-1.441-5.777V15.401h-3.375V10.62h3.375V3.659h6.75v6.961h3.938v4.781h-3.938v14.11
		c0,0.672,0.148,1.113,0.445,1.324s0.906,0.316,1.828,0.316h1.664V36.284z"/>
	<path fill="#00A14B" d="M71.015,36.097c0.109-2.688,0.762-5.02,1.957-6.996s3.52-4.27,6.972-6.879
		c0.328-0.234,0.797-0.578,1.406-1.031c3.797-2.782,5.695-5.383,5.695-7.805c0-1.766-0.41-3.117-1.23-4.055
		s-2.004-1.406-3.551-1.406s-2.68,0.512-3.398,1.535s-1.078,2.637-1.078,4.84v0.234h-6.563v-0.422c0-3.984,0.934-6.988,2.801-9.012
		s4.628-3.035,8.285-3.035c3.516,0,6.328,1,8.438,3s3.164,4.648,3.164,7.945c0,2.266-0.527,4.289-1.582,6.07
		c-1.055,1.782-2.879,3.649-5.473,5.602c-0.75,0.563-1.797,1.297-3.141,2.203c-2.281,1.531-3.648,2.695-4.102,3.492H93.96v5.719
		H71.015z M72.328,34.995h20.39v-3.516H78.14c0.031-1.453,1.672-3.289,4.922-5.508c0.891-0.609,1.586-1.094,2.086-1.453
		c2.813-1.984,4.77-3.844,5.871-5.579c1.102-1.734,1.652-3.711,1.652-5.93c0-2.969-0.938-5.352-2.813-7.148s-4.375-2.695-7.5-2.695
		c-3.188,0-5.617,0.875-7.289,2.625s-2.523,4.297-2.555,7.641h4.125c0.094-2.203,0.605-3.848,1.535-4.934
		c0.93-1.086,2.293-1.629,4.09-1.629c1.922,0,3.402,0.563,4.441,1.688s1.559,2.734,1.559,4.828c0,2.75-2.117,5.672-6.352,8.766
		l-0.609,0.469c-3.562,2.641-5.898,4.805-7.007,6.492S72.531,32.761,72.328,34.995z"/>
	<path fill="#00A14B" d="M98.624,36.097V1.573h6.609v9.516c0,0.094-0.027,0.309-0.082,0.645s-0.137,0.73-0.246,1.184
		c0.953-1.109,2.02-1.922,3.199-2.438s2.543-0.773,4.09-0.773c3.438,0,6.148,1.199,8.133,3.598s2.977,5.691,2.977,9.879
		c0,4.266-0.996,7.629-2.988,10.09s-4.715,3.691-8.168,3.691c-1.531,0-2.895-0.258-4.09-0.773s-2.262-1.313-3.199-2.391
		c0.063,0.219,0.109,0.434,0.141,0.645s0.047,0.395,0.047,0.551v1.102H98.624z M99.819,35.042h4.078v-3.609
		c1.297,1.609,2.574,2.758,3.832,3.445s2.684,1.031,4.277,1.031c3.125,0,5.586-1.133,7.383-3.398s2.695-5.375,2.695-9.328
		c0-3.797-0.883-6.809-2.648-9.036s-4.141-3.34-7.125-3.34c-1.563,0-3,0.328-4.313,0.984s-2.633,1.703-3.961,3.141V2.698h-4.219
		V35.042z M104.038,23.417c0-2.797,0.602-4.958,1.805-6.481s2.891-2.285,5.063-2.285c2.031,0,3.66,0.773,4.887,2.32
		s1.84,3.618,1.84,6.211c0,2.813-0.586,5.02-1.758,6.621s-2.781,2.402-4.828,2.402c-2.188,0-3.902-0.773-5.145-2.32
		S104.038,26.183,104.038,23.417z M105.304,23.37c0,2.406,0.5,4.289,1.5,5.648s2.383,2.039,4.148,2.039
		c1.688,0,3.016-0.699,3.984-2.098s1.453-3.324,1.453-5.777c0-2.266-0.496-4.071-1.488-5.415s-2.324-2.016-3.996-2.016
		c-1.828,0-3.219,0.648-4.172,1.945S105.304,20.886,105.304,23.37z"/>
	<path fill="#8DC63F" d="M129.093,36.097V15.401h-3.633V10.62h3.633V8.252c0-2.375,0.613-4.121,1.84-5.238s3.16-1.676,5.801-1.676
		c0.484,0,0.996,0.012,1.535,0.035s1.113,0.066,1.723,0.129v5.414h-1.781c-1.016,0-1.684,0.133-2.004,0.398s-0.48,0.773-0.48,1.523
		v1.781h4.266v4.781h-4.219v20.696H129.093z"/>
	<path fill="#8DC63F" d="M143.601,7.784V1.573h6.82v6.211H143.601z M143.601,36.097V10.62h6.82v25.477H143.601z"/>
	<path fill="#8DC63F" d="M167.835,36.284c-0.625,0.016-1.371,0.043-2.238,0.082s-1.418,0.059-1.652,0.059
		c-2.609,0-4.395-0.488-5.355-1.465s-1.441-2.902-1.441-5.777V15.401h-3.375V10.62h3.375V3.659h6.75v6.961h3.938v4.781h-3.938v14.11
		c0,0.672,0.148,1.113,0.445,1.324s0.906,0.316,1.828,0.316h1.664V36.284z"/>
</g>
<g>
</g>
<g>
</g>
<g>
</g>
<g>
</g>
<g>
</g>
<g>
</g>
</svg>
